<?xml version="1.0" encoding="UTF-8"?>
<!-- Generator: visioncortex VTracer 0.6.4 -->
<svg version="1.1" xmlns="http://www.w3.org/2000/svg" width="654" height="408">
<path d="M0 0 C215.82 0 431.64 0 654 0 C654 134.64 654 269.28 654 408 C438.18 408 222.36 408 0 408 C0 273.36 0 138.72 0 0 Z " fill="#FEFDFE" transform="translate(0,0)"/>
<path d="M0 0 C2.623182 1.273304 5.179185 2.606051 7.722656 4.032227 C8.710642 4.585154 9.698628 5.138081 10.716553 5.707764 C11.774309 6.30468 12.832065 6.901597 13.921875 7.516602 C15.030549 8.139944 16.139224 8.763286 17.281494 9.405518 C26.720391 14.72932 36.086657 20.173844 45.433594 25.657227 C49.861269 28.252191 54.302607 30.821869 58.753906 33.375977 C59.349005 33.717744 59.944104 34.059512 60.557236 34.411636 C63.447779 36.071397 66.339774 37.728481 69.234131 39.381592 C70.270618 39.976575 71.307104 40.571558 72.375 41.18457 C73.290557 41.708171 74.206113 42.231772 75.149414 42.77124 C75.961201 43.264709 76.772988 43.758179 77.609375 44.266602 C78.3078 44.605625 79.006225 44.944648 79.725815 45.293945 C82.785655 48.498522 82.207475 52.053319 82.206299 56.324463 C82.22134 57.251606 82.23638 58.178749 82.251877 59.133987 C82.295047 62.20573 82.30766 65.276611 82.316406 68.348633 C82.331795 70.482318 82.347645 72.616001 82.363937 74.74968 C82.392427 79.226178 82.403809 83.702371 82.405518 88.178955 C82.410698 93.91321 82.47565 99.645082 82.555806 105.378713 C82.607815 109.787468 82.619079 114.195648 82.619024 118.604681 C82.625589 120.718255 82.646881 122.831837 82.683207 124.945108 C82.942595 141.449387 82.942595 141.449387 79.751053 145.799545 C77.406509 147.40021 75.287248 148.351123 72.609375 149.266602 C71.560159 149.897517 70.510942 150.528433 69.429932 151.178467 C68.4695 151.721887 67.509067 152.265308 66.519531 152.825195 C65.418591 153.450793 64.317651 154.076392 63.18335 154.720947 C62.611479 155.043908 62.039609 155.366868 61.450409 155.699615 C58.991751 157.088224 56.537382 158.484338 54.082718 159.87999 C52.811183 160.602892 51.539443 161.325435 50.267502 162.047623 C44.939725 165.073731 39.627162 168.125426 34.320801 171.188965 C32.153999 172.439925 29.985723 173.688338 27.815918 174.934082 C22.820272 177.806713 17.852686 180.711204 12.9375 183.719727 C12.064241 184.247195 11.190981 184.774663 10.29126 185.318115 C8.678241 186.29521 7.073809 187.286685 5.480225 188.295166 C4.773899 188.720154 4.067573 189.145142 3.339844 189.583008 C2.735515 189.95885 2.131187 190.334692 1.508545 190.721924 C-1.962211 191.717329 -4.645263 189.655238 -7.688721 188.068359 C-8.473357 187.623311 -9.257993 187.178262 -10.066406 186.719727 C-10.963835 186.212078 -11.861265 185.704429 -12.785889 185.181396 C-13.748577 184.632014 -14.711265 184.082632 -15.703125 183.516602 C-16.719309 182.939504 -17.735493 182.362407 -18.782471 181.767822 C-26.893123 177.149629 -34.958635 172.455711 -43.01001 167.735107 C-48.650264 164.432611 -54.307472 161.162734 -59.988281 157.930664 C-60.945916 157.385519 -60.945916 157.385519 -61.922897 156.829361 C-65.047539 155.051488 -68.17416 153.277216 -71.303467 151.507568 C-72.994032 150.547177 -72.994032 150.547177 -74.71875 149.567383 C-76.217769 148.719139 -76.217769 148.719139 -77.74707 147.85376 C-78.619443 147.329998 -79.491816 146.806235 -80.390625 146.266602 C-81.091528 145.92503 -81.79243 145.583459 -82.514572 145.231537 C-85.519163 142.084597 -85.022481 138.370778 -85.051025 134.240479 C-85.083224 132.854583 -85.083224 132.854583 -85.116074 131.440689 C-85.179682 128.378659 -85.21174 125.317447 -85.238281 122.254883 C-85.250839 121.208493 -85.263397 120.162104 -85.276335 119.084005 C-85.342187 113.544016 -85.384163 108.004441 -85.406494 102.464111 C-85.43399 96.74706 -85.540394 91.034381 -85.665582 85.318753 C-85.747743 80.918481 -85.771603 76.519251 -85.779783 72.118277 C-85.793711 70.011777 -85.829356 67.905302 -85.887377 65.799555 C-86.29841 49.782838 -86.29841 49.782838 -83.151983 45.632919 C-79.673661 42.545467 -75.694854 40.968773 -71.390625 39.266602 C-69.160343 38.071661 -67.011494 36.779385 -64.839844 35.477539 C-62.58699 34.197039 -60.333052 32.918447 -58.078125 31.641602 C-55.616251 30.242203 -53.155627 28.840616 -50.695312 27.438477 C-50.081563 27.088828 -49.467813 26.73918 -48.835464 26.378937 C-42.769988 22.919761 -36.733316 19.411893 -30.703125 15.891602 C-29.72521 15.323608 -28.747295 14.755615 -27.739746 14.17041 C-23.220485 11.538835 -18.731726 8.874321 -14.296875 6.102539 C-13.5153 5.620913 -12.733726 5.139287 -11.928467 4.643066 C-10.493138 3.755257 -9.06666 2.852895 -7.651611 1.933105 C-3.006358 -0.922294 -3.006358 -0.922294 0 0 Z " fill="#BF07E9" transform="translate(329.390625,71.7333984375)"/>
<path d="M0 0 C16.5 0 33 0 50 0 C50 16.5 50 33 50 50 C36.14 50 22.28 50 8 50 C8 63.86 8 77.72 8 92 C-8.5 92 -25 92 -42 92 C-42 75.5 -42 59 -42 42 C-28.14 42 -14.28 42 0 42 C0 28.14 0 14.28 0 0 Z " fill="#FBF2FD" transform="translate(324,121)"/>
<path d="M0 0 C3.791247 -0.147141 7.581747 -0.234678 11.375 -0.3125 C12.966348 -0.375342 12.966348 -0.375342 14.589844 -0.439453 C22.169771 -0.55571 27.645089 0.777706 34 5 C37.027942 8.117 37.200898 10.8029 37.375 15 C37.226964 19.163521 36.78305 21.753109 34 25 C32.061057 26.776131 30.079874 28.38232 28 30 C28.410209 31.314533 28.828683 32.626486 29.25 33.9375 C29.482031 34.668398 29.714063 35.399297 29.953125 36.152344 C31.437549 40.190199 33.221345 44.084503 35 48 C35.105461 47.456982 35.210923 46.913965 35.31958 46.354492 C37.110654 37.168801 38.903062 28.016942 41.277344 18.960938 C42.488739 13.997491 43.405573 8.976881 44.351562 3.957031 C45 1 45 1 46 0 C48.864693 -0.073303 51.698937 -0.092178 54.5625 -0.0625 C57.346875 -0.041875 60.13125 -0.02125 63 0 C63.99 14.85 63.99 14.85 65 30 C67.214925 22.372204 67.214925 22.372204 69.427246 14.743652 C69.706489 13.784106 69.985732 12.824561 70.273438 11.835938 C70.69762 10.374866 70.69762 10.374866 71.130371 8.884277 C72.028737 5.904688 73.015875 2.952375 74 0 C79.94 0 85.88 0 92 0 C91.427975 16.709159 90.383957 33.338767 89 50 C84.38 50 79.76 50 75 50 C74.514455 39.156165 76.322528 28.679012 78 18 C77.040888 21.187266 76.082853 24.374855 75.125 27.5625 C74.855586 28.457754 74.586172 29.353008 74.308594 30.275391 C74.044336 31.155176 73.780078 32.034961 73.507812 32.941406 C73.146472 34.143256 73.146472 34.143256 72.777832 35.369385 C71.830474 38.573336 70.917864 41.787475 70 45 C65.05 45 60.1 45 55 45 C54.67 37.41 54.34 29.82 54 22 C53.055817 29.34387 53.055817 29.34387 52.115479 36.688232 C51.99616 37.60967 51.876841 38.531108 51.753906 39.480469 C51.633459 40.417859 51.513013 41.355249 51.388916 42.321045 C51.015208 44.895244 50.510134 47.449329 50 50 C40.1 50 30.2 50 20 50 C14 36.5 14 36.5 14 33 C12.68 33 11.36 33 10 33 C9.939414 33.97582 9.878828 34.951641 9.816406 35.957031 C9.732617 37.229336 9.648828 38.501641 9.5625 39.8125 C9.481289 41.07707 9.400078 42.341641 9.316406 43.644531 C9 47 9 47 8 50 C3.38 50 -1.24 50 -6 50 C-6.348097 42.806003 -5.472353 36.238362 -4.212158 29.191406 C-3.078667 22.762292 -2.294515 16.332724 -1.646973 9.837891 C-1.305635 6.472074 -0.873687 3.266633 0 0 Z " fill="#C10CEA" transform="translate(467,291)"/>
<path d="M0 0 C4.559652 3.626996 6.769419 7.390841 8 13 C9.140891 23.439935 6.762267 32.490858 0.671875 41.023438 C-3.91597 46.447385 -9.460164 49.483157 -16.539062 50.289062 C-23.388711 50.647584 -27.779658 49.492209 -33 45 C-37.795755 40.078041 -39.291728 34.720203 -39.4375 27.9375 C-39.274198 19.006938 -36.792042 10.428637 -30.5 3.875 C-21.808555 -3.741797 -10.329173 -5.990921 0 0 Z " fill="#C10BEA" transform="translate(452,293)"/>
<path d="M0 0 C25.74 0 51.48 0 78 0 C77 9 77 9 76 11 C72.04 11 68.08 11 64 11 C64.059941 12.78084 64.059941 12.78084 64.121094 14.597656 C64.119783 21.289996 63.046076 27.831548 62.0625 34.4375 C61.880098 35.715605 61.697695 36.993711 61.509766 38.310547 C60.137867 47.724266 60.137867 47.724266 59 50 C54.38 50 49.76 50 45 50 C44.629013 41.624979 46.054018 33.650482 47.5 25.4375 C47.741569 24.033321 47.98246 22.629024 48.222656 21.224609 C48.807296 17.815024 49.401088 14.40711 50 11 C46.04 11 42.08 11 38 11 C38 9.68 38 8.36 38 7 C37.67 8.32 37.34 9.64 37 11 C33.04 11 29.08 11 25 11 C24.962617 11.983555 24.925234 12.967109 24.886719 13.980469 C24.501534 22.555012 23.712495 31.000853 22.5 39.5 C22.369402 40.425789 22.238804 41.351577 22.104248 42.30542 C21.131454 48.868546 21.131454 48.868546 20 50 C17.646864 50.072717 15.291663 50.083709 12.9375 50.0625 C11.647148 50.053477 10.356797 50.044453 9.027344 50.035156 C8.02832 50.023555 7.029297 50.011953 6 50 C5.896419 44.655206 6.211581 39.730513 7.09375 34.4375 C7.20473 33.760742 7.31571 33.083984 7.430054 32.386719 C7.780731 30.256772 8.140192 28.128421 8.5 26 C8.741472 24.543066 8.982362 23.086035 9.222656 21.628906 C9.8084 18.084799 10.402022 14.542066 11 11 C7.04 11 3.08 11 -1 11 C-0.67 7.37 -0.34 3.74 0 0 Z " fill="#E276FB" transform="translate(215,291)"/>
<path d="M0 0 C3.812235 -0.117452 7.623997 -0.187666 11.4375 -0.25 C12.506777 -0.283516 13.576055 -0.317031 14.677734 -0.351562 C21.561455 -0.435767 27.106889 0.237475 33 4 C35.994016 7.21309 37.223072 9.67845 37.4375 14 C37.205466 17.929611 36.207876 20.688187 34 24 C32.937132 24.859283 31.852576 25.692299 30.75 26.5 C29.8425 27.325 28.935 28.15 28 29 C28.237962 33.759247 29.996012 37.509548 32.0625 41.75 C35 47.804706 35 47.804706 35 50 C29.72 50 24.44 50 19 50 C17.996005 47.376465 16.996656 44.751322 16 42.125 C15.713828 41.378633 15.427656 40.632266 15.132812 39.863281 C13 34.226562 13 34.226562 13 32 C12.01 32 11.02 32 10 32 C9.34 37.94 8.68 43.88 8 50 C3.05 50 -1.9 50 -7 50 C-5.377671 33.162194 -3.334642 16.588575 0 0 Z " fill="#E276FB" transform="translate(333,291)"/>
<path d="M0 0 C4.95 0 9.9 0 15 0 C14.468538 8.184521 13.419458 16.162683 12.016357 24.235596 C10.393478 32.272493 10.393478 32.272493 12 40 C15.437933 39.818702 15.437933 39.818702 19 39 C21.576436 35.528891 21.734295 31.125584 22.289062 26.953125 C22.397213 26.181923 22.505363 25.410721 22.616791 24.61615 C22.959463 22.16163 23.292355 19.705897 23.625 17.25 C23.856126 15.581942 24.08789 13.913972 24.320312 12.246094 C24.887599 8.165047 25.44612 4.082887 26 0 C30.95 0 35.9 0 41 0 C40.560884 8.672549 39.543398 17.219405 38.3125 25.8125 C38.176182 26.885564 38.039863 27.958628 37.899414 29.064209 C36.851925 36.014894 35.090707 41.010826 30 46 C24.599427 49.934765 19.734338 51.166161 13.125 51.25 C11.910703 51.275781 10.696406 51.301562 9.445312 51.328125 C3.924615 50.802344 0.584186 48.096212 -3 44 C-7.458995 30.623014 -2.276201 13.423492 0 0 Z " fill="#E277FB" transform="translate(172,291)"/>
<path d="M0 0 C10.89 0 21.78 0 33 0 C32.01 3.3 31.02 6.6 30 10 C24.39 10 18.78 10 13 10 C12.67 13.3 12.34 16.6 12 20 C16.62 20 21.24 20 26 20 C25.67 22.97 25.34 25.94 25 29 C20.05 29 15.1 29 10 29 C9.67 32.63 9.34 36.26 9 40 C14.61 40 20.22 40 26 40 C26.097656 46.933594 26.097656 46.933594 26 49 C25 50 25 50 22.040771 50.113525 C20.747278 50.108289 19.453784 50.103052 18.121094 50.097656 C17.0911 50.095534 17.0911 50.095534 16.040298 50.093369 C13.839322 50.087755 11.638446 50.0752 9.4375 50.0625 C7.948569 50.057487 6.459637 50.052924 4.970703 50.048828 C1.313769 50.037781 -2.343106 50.020507 -6 50 C-5.406722 38.938234 -4.014037 28.080671 -2.4375 17.125 C-2.200733 15.454489 -1.964403 13.783917 -1.728516 12.113281 C-1.158145 8.074655 -0.578914 4.037446 0 0 Z " fill="#E075F8" transform="translate(296,291)"/>
<path d="M0 0 C11.22 0 22.44 0 34 0 C34 11.22 34 22.44 34 34 C22.78 34 11.56 34 0 34 C0 22.78 0 11.56 0 0 Z " fill="#C006EA" transform="translate(290,171)"/>
<path d="M0 0 C11.22 0 22.44 0 34 0 C34 11.22 34 22.44 34 34 C22.78 34 11.56 34 0 34 C0 22.78 0 11.56 0 0 Z " fill="#BF06E9" transform="translate(332,129)"/>
<path d="M0 0 C10.23 0 20.46 0 31 0 C29 10 29 10 28 11 C25.469506 11.073136 22.966952 11.092475 20.4375 11.0625 C19.726582 11.057988 19.015664 11.053477 18.283203 11.048828 C16.5221 11.037009 14.76104 11.019073 13 11 C12.67 14.63 12.34 18.26 12 22 C15.96 22 19.92 22 24 22 C24 25.3 24 28.6 24 32 C19.38 32 14.76 32 10 32 C9.855625 34.041875 9.71125 36.08375 9.5625 38.1875 C9.2742 42.264887 8.805517 45.972415 8 50 C3.05 50 -1.9 50 -7 50 C-6.174331 42.373199 -5.263624 34.757246 -4.325439 27.143555 C-4.150173 25.714734 -3.976669 24.285695 -3.804932 22.856445 C-3.552599 20.757919 -3.294445 18.660177 -3.035156 16.5625 C-2.884417 15.326289 -2.733677 14.090078 -2.578369 12.816406 C-1.925419 8.507873 -0.945324 4.253959 0 0 Z " fill="#C20EEA" transform="translate(386,291)"/>
<path d="M0 0 C10.23 0 20.46 0 31 0 C30.34 3.3 29.68 6.6 29 10 C23.72 10 18.44 10 13 10 C12.67 13.63 12.34 17.26 12 21 C16.29 21 20.58 21 25 21 C24.67 24.3 24.34 27.6 24 31 C19.38 31 14.76 31 10 31 C9.783437 34.310313 9.783437 34.310313 9.5625 37.6875 C9.284335 41.939445 8.838932 45.80534 8 50 C3.05 50 -1.9 50 -7 50 C-6.490724 45.450121 -5.977674 40.900953 -5.455811 36.352539 C-5.280231 34.813061 -5.106648 33.273353 -4.935303 31.733398 C-3.743341 21.037198 -2.093913 10.559559 0 0 Z " fill="#E276FB" transform="translate(104,291)"/>
<path d="M0 0 C4.62 0 9.24 0 14 0 C13.237161 13.222537 12.222982 26.108071 9 39 C14.94 39 20.88 39 27 39 C26 47 26 47 25 50 C14.44 50 3.88 50 -7 50 C-5.87661 36.519317 -5.87661 36.519317 -5.0625 31.746094 C-4.889766 30.706465 -4.717031 29.666836 -4.539062 28.595703 C-4.361172 27.553496 -4.183281 26.511289 -4 25.4375 C-2.794577 18.34909 -1.757958 11.340205 -1.246094 4.164307 C-1 2 -1 2 0 0 Z " fill="#E277FA" transform="translate(138,291)"/>
<path d="M0 0 C3.4375 0.5625 3.4375 0.5625 5.128906 2.246094 C8.371663 7.986256 6.855359 15.88757 5.1875 22 C3.856055 25.827905 2.619792 28.91059 -0.5625 31.5625 C-4.125 32.125 -4.125 32.125 -7.5625 31.5625 C-10.025774 29.213003 -10.533739 27.791459 -10.960938 24.390625 C-10.904423 15.762798 -10.18385 10.056243 -5.8125 2.5625 C-3.5625 0.5625 -3.5625 0.5625 0 0 Z " fill="#FCF6FE" transform="translate(438.5625,300.4375)"/>
<path d="M0 0 C6.6 0 13.2 0 20 0 C20 6.6 20 13.2 20 20 C13.4 20 6.8 20 0 20 C0 13.4 0 6.8 0 0 Z " fill="#FAEBFD" transform="translate(297,178)"/>
<path d="M0 0 C6.6 0 13.2 0 20 0 C20 6.6 20 13.2 20 20 C13.4 20 6.8 20 0 20 C0 13.4 0 6.8 0 0 Z " fill="#FAEBFD" transform="translate(339,136)"/>
<path d="M0 0 C3.125 0.25 3.125 0.25 5 1.4375 C6.558231 3.947984 6.621314 5.343021 6.125 8.25 C4.5 10.5625 4.5 10.5625 2.125 12.25 C-1.125 12.5 -1.125 12.5 -3.875 12.25 C-3.901873 10.437579 -3.921337 8.625048 -3.9375 6.8125 C-3.949102 5.803164 -3.960703 4.793828 -3.972656 3.753906 C-3.83272 0.165945 -3.613918 0.314254 0 0 Z " fill="#FDF6FE" transform="translate(348.875,300.75)"/>
<path d="M0 0 C6.152344 -0.097656 6.152344 -0.097656 8 0 C9 1 9 1 9.375 4.3125 C9 8 9 8 6.8125 10.4375 C3.848439 12.084201 2.323514 12.37983 -1 12 C-1.081596 7.838617 -0.982485 4.052752 0 0 Z " fill="#FBF2FD" transform="translate(480,302)"/>
<path d="M0 0 C0.33 0.66 0.66 1.32 1 2 C2.98 2 4.96 2 7 2 C6.67 3.98 6.34 5.96 6 8 C4.02 8 2.04 8 0 8 C0 5.36 0 2.72 0 0 Z " fill="#AEA9B2" transform="translate(598,384)"/>
</svg>
